<svg id="Warstwa_1" data-name="Warstwa 1" xmlns="http://www.w3.org/2000/svg" viewBox="0 0 791.23 409.37"><defs><style>.cls-1{fill:#1f1f1f;}.cls-2{fill:#5a7eff;}</style></defs><title>123Obszar roboczy 1</title><path class="cls-1" d="M0,328.83V38.22H60.2V328.83Zm53.56-67.67-2.91-70.58L196.37,38.22H264L138.25,173.15l-33.63,36.12Zm147,67.67L93,199.72l40.27-44L271.52,328.83Z"/><path class="cls-1" d="M315.91,328.83V3.75h60.62V328.83Z"/><path class="cls-1" d="M438,328.83V106.31H496.5V328.83Z"/><path class="cls-1" d="M663.78,331.74q-31.56,0-56.88-14.12A103.92,103.92,0,0,1,566.84,278q-14.75-25.53-14.74-60.41t14.74-60.41a104,104,0,0,1,40.06-39.64q25.32-14.11,56.88-14.12,29.06,0,50.65,12.25T747.85,153q11.83,25.13,11.83,64.56,0,39-12.25,64.14T713.6,319.29Q692,331.74,663.78,331.74Zm8.72-48.57q17.43,0,31.13-7.89a58.66,58.66,0,0,0,22-22.63q8.29-14.73,8.3-35.08t-8.3-35.08a58.73,58.73,0,0,0-22-22.63Q689.94,152,672.5,152t-31.14,7.88a58.71,58.71,0,0,0-22,22.63q-8.31,14.74-8.31,35.08t8.31,35.08a58.64,58.64,0,0,0,22,22.63Q655.06,283.17,672.5,283.17Zm60.61,126.2V280.68L737.26,218l-1.66-62.28v-49.4h55.63V409.37Z"/><circle class="cls-2" cx="467.23" cy="38.22" r="38.22"/></svg>